<?xml version="1.0" standalone="no"?>
<!DOCTYPE svg PUBLIC "-//W3C//DTD SVG 20010904//EN"
 "http://www.w3.org/TR/2001/REC-SVG-20010904/DTD/svg10.dtd">
<svg version="1.0" xmlns="http://www.w3.org/2000/svg"
 width="480.000000pt" height="480.000000pt" viewBox="0 0 480.000000 480.000000"
 preserveAspectRatio="xMidYMid meet">
<metadata>
Created by potrace 1.11, written by Peter Selinger 2001-2013
</metadata>
<g transform="translate(0.000000,480.000000) scale(0.100000,-0.100000)"
fill="#000000" stroke="none">
<path d="M1887 4794 c-1 -1 -39 -4 -84 -8 -177 -13 -369 -100 -502 -226 -30
-28 -49 -39 -60 -34 -207 89 -418 105 -621 48 -281 -80 -496 -299 -572 -584
-20 -74 -20 -103 -22 -1760 -1 -1246 2 -1693 11 -1718 41 -122 194 -230 451
-322 95 -33 262 -79 347 -95 81 -15 266 -44 315 -50 275 -32 359 -36 785 -36
378 -1 531 5 725 26 25 3 65 8 90 10 65 8 289 45 330 55 19 5 51 12 70 15 58
10 263 73 341 106 195 80 321 175 361 272 13 33 17 75 17 189 l1 146 38 13
c92 30 265 127 354 198 61 49 194 187 240 249 294 397 354 928 157 1379 -97
220 -252 414 -445 553 -80 59 -226 138 -300 164 l-39 13 -6 274 c-3 151 -9
288 -13 304 -17 76 -62 189 -99 250 -28 47 -122 157 -164 192 -87 74 -250 160
-333 177 -14 2 -50 10 -80 16 -61 12 -213 15 -275 5 -82 -13 -193 -48 -269
-86 l-78 -40 -62 59 c-108 104 -243 180 -383 216 -53 14 -219 36 -226 30z
m2043 -2020 c379 -301 464 -737 217 -1109 -44 -67 -196 -220 -245 -248 l-32
-18 0 705 c0 388 3 706 8 706 4 0 27 -16 52 -36z"/>
</g>
</svg>
